<?xml version="1.0" encoding="utf-8"?><!DOCTYPE svg PUBLIC "-//W3C//DTD SVG 1.1//EN" "http://www.w3.org/Graphics/SVG/1.1/DTD/svg11.dtd"><svg xmlns="http://www.w3.org/2000/svg" xmlns:xlink="http://www.w3.org/1999/xlink"><symbol viewBox="0 0 24 24" id="border-color" xmlns="http://www.w3.org/2000/svg"><path fill="none" d="M0 0h24v24H0V0z"/><path d="M14 3.25l-10 10V17h3.75l10-10L14 3.25zM6.92 15H6v-.92l8-8 .92.92-8 8zM20.71 4.04a.996.996 0 0 0 0-1.41L18.37.29a.996.996 0 0 0-1.41 0L15 2.25 18.75 6l1.96-1.96z"/><path fill-opacity=".36" d="M0 20h24v4H0v-4z"/></symbol><symbol viewBox="0 0 24 24" id="circle" xmlns="http://www.w3.org/2000/svg"><path fill="none" d="M0 0h24v24H0V0z"/><path d="M12 6c3.31 0 6 2.69 6 6s-2.69 6-6 6-6-2.69-6-6 2.69-6 6-6m0-2c-4.42 0-8 3.58-8 8s3.58 8 8 8 8-3.58 8-8-3.58-8-8-8z"/></symbol><symbol viewBox="0 0 24 24" id="close" xmlns="http://www.w3.org/2000/svg"><path d="M19 6.41L17.59 5 12 10.59 6.41 5 5 6.41 10.59 12 5 17.59 6.41 19 12 13.41 17.59 19 19 17.59 13.41 12z"/><path d="M0 0h24v24H0z" fill="none"/></symbol><symbol viewBox="0 0 24 24" id="code" xmlns="http://www.w3.org/2000/svg"><path fill="none" d="M0 0h24v24H0V0z"/><path d="M9.4 16.6L4.8 12l4.6-4.6L8 6l-6 6 6 6 1.4-1.4zm5.2 0l4.6-4.6-4.6-4.6L16 6l6 6-6 6-1.4-1.4z"/></symbol><symbol viewBox="0 0 177.501 177.501" id="curved-line" xmlns="http://www.w3.org/2000/svg"><path d="M0 177.501C0 79.626 79.627 0 177.501 0v15C87.898 15 15 87.898 15 177.501H0z"/></symbol><symbol viewBox="0 0 24 24" id="delete" xmlns="http://www.w3.org/2000/svg"><path d="M6 19c0 1.1.9 2 2 2h8c1.1 0 2-.9 2-2V7H6v12zM8 9h8v10H8V9zm7.5-5l-1-1h-5l-1 1H5v2h14V4z"/><path fill="none" d="M0 0h24v24H0V0z"/></symbol><symbol viewBox="0 0 24 24" id="fill" xmlns="http://www.w3.org/2000/svg"><path fill="none" d="M0 0h24v24H0z"/><path d="M12 22C6.49 22 2 17.51 2 12S6.49 2 12 2s10 4.04 10 9c0 3.31-2.69 6-6 6h-1.77c-.28 0-.5.22-.5.5 0 .12.05.23.13.33.41.47.64 1.06.64 1.67A2.5 2.5 0 0 1 12 22zm0-18c-4.41 0-8 3.59-8 8s3.59 8 8 8c.28 0 .5-.22.5-.5a.54.54 0 0 0-.14-.35c-.41-.46-.63-1.05-.63-1.65a2.5 2.5 0 0 1 2.5-2.5H16c2.21 0 4-1.79 4-4 0-3.86-3.59-7-8-7z"/><circle cx="6.5" cy="11.5" r="1.5"/><circle cx="9.5" cy="7.5" r="1.5"/><circle cx="14.5" cy="7.5" r="1.5"/><circle cx="17.5" cy="11.5" r="1.5"/></symbol><symbol viewBox="0 0 42 42" id="line" xmlns="http://www.w3.org/2000/svg"><path d="M0 20h42v2H0z"/></symbol><symbol viewBox="0 0 22.138 22.138" id="polyline" xmlns="http://www.w3.org/2000/svg"><path d="M21.061 3.804c-.594 0-1.076.482-1.076 1.077 0 .124.024.241.063.352l-3.154 4.694-3.897-3.753a1.077 1.077 0 1 0-2.133-.216c0 .533.389.972.898 1.058l2.544 6.399-2.94-1.446c.003-.034.01-.067.01-.102a1.077 1.077 0 1 0-2.154 0c0 .32.143.604.365.802l-.571 3.533c-.269.052-.5.205-.657.418l-6.222-1.682A1.074 1.074 0 0 0 0 15.104c0 .594.482 1.077 1.077 1.077.236 0 .452-.078.629-.206l6.564 1.773c.179.347.537.585.953.585.595 0 1.077-.481 1.077-1.076 0-.244-.084-.466-.221-.646l.604-3.738 3.706 1.824a1.074 1.074 0 1 0 1.145-1.211l-2.141-5.384 3.208 3.088a.555.555 0 0 0 .848-.091l3.464-5.156c.049.007.099.015.148.015a1.077 1.077 0 1 0 0-2.154z" fill="#fff"/></symbol><symbol viewBox="0 0 24 24" id="polyline-2" xmlns="http://www.w3.org/2000/svg"><path fill="none" d="M0 0h24v24H0V0z"/><path d="M3.5 18.49l6-6.01 4 4L22 6.92l-1.41-1.41-7.09 7.97-4-4L2 16.99l1.5 1.5z"/></symbol><symbol viewBox="0 0 64 64" id="rect" xmlns="http://www.w3.org/2000/svg"><path d="M64 11H0v42h64V11zm-2 40H2V13h60v38z"/></symbol><symbol viewBox="0 0 24 24" id="redo" xmlns="http://www.w3.org/2000/svg"><path fill="none" d="M0 0h24v24H0V0z"/><path d="M18.4 10.6C16.55 8.99 14.15 8 11.5 8c-4.65 0-8.58 3.03-9.96 7.22L3.9 16a8.002 8.002 0 0 1 7.6-5.5c1.95 0 3.73.72 5.12 1.88L13 16h9V7l-3.6 3.6z"/></symbol><symbol viewBox="0 0 323.057 323.057" id="scribble" xmlns="http://www.w3.org/2000/svg"><path d="M281.442 256.312c-47.124 59.364-139.536 44.676-160.956-29.376-1.224-3.672-1.836-7.956-2.448-11.628 49.572-11.016 97.92-47.124 102.204-90.576 3.672-39.168-36.108-50.796-62.424-28.764-31.212 26.316-53.244 64.872-55.08 105.875-31.824 4.284-63.036-4.284-80.172-35.496-28.764-52.631 9.792-123.624 61.2-144.432 5.508-1.836 3.06-10.404-2.448-8.568C10.326 33.544-26.394 132.688 21.954 191.439c18.972 22.645 49.572 29.988 81.396 26.316 4.284 41.616 36.72 74.664 75.275 87.516 44.676 14.688 85.68-6.731 111.996-41.616 4.285-5.508-4.896-12.239-9.179-7.343zM144.354 132.688c9.792-13.464 22.644-28.764 39.168-34.272 15.911-5.508 21.42 16.524 22.031 26.316.612 12.24-7.956 23.256-15.912 31.824-16.523 18.971-44.063 35.496-72.215 42.839 1.836-23.868 13.464-47.123 26.928-66.707z"/><path d="M315.713 233.668c-17.136 0-34.884 1.224-51.408 5.508-6.731 1.836-3.672 11.016 3.061 9.792 13.464-2.448 27.54-1.836 41.004-1.224-.612 7.955-1.224 16.523-2.448 24.479-1.224 6.12-5.508 15.3-1.836 21.42 1.836 3.061 4.896 3.061 7.956 1.836 7.344-3.06 7.344-15.912 8.568-22.644 1.836-11.017 2.447-21.42 2.447-32.437 0-3.67-3.672-6.73-7.344-6.73z"/></symbol><symbol viewBox="0 0 24 24" id="scurve" xmlns="http://www.w3.org/2000/svg"><path fill="none" d="M0 0h24v24H0V0z"/><path d="M18.6 6.62c-1.44 0-2.8.56-3.77 1.53L7.8 14.39c-.64.64-1.49.99-2.4.99-1.87 0-3.39-1.51-3.39-3.38S3.53 8.62 5.4 8.62c.91 0 1.76.35 2.44 1.03l1.13 1 1.51-1.34L9.22 8.2A5.37 5.37 0 0 0 5.4 6.62C2.42 6.62 0 9.04 0 12s2.42 5.38 5.4 5.38c1.44 0 2.8-.56 3.77-1.53l7.03-6.24c.64-.64 1.49-.99 2.4-.99 1.87 0 3.39 1.51 3.39 3.38s-1.52 3.38-3.39 3.38c-.9 0-1.76-.35-2.44-1.03l-1.14-1.01-1.51 1.34 1.27 1.12a5.386 5.386 0 0 0 3.82 1.57c2.98 0 5.4-2.41 5.4-5.38s-2.42-5.37-5.4-5.37z"/></symbol><symbol viewBox="0 0 79.124 78.876" id="svgSize" xmlns="http://www.w3.org/2000/svg"><path d="M47.624 0l12.021 9.73L44.5 24.376l10 10 14.661-15.161L79.124 31.5V0h-31.5zM24.5 44.376L9.847 59.529 0 47.376v31.5h31.5l-12.153-9.847L34.5 54.376l-10-10z"/></symbol><symbol viewBox="0 0 24 24" id="undo" xmlns="http://www.w3.org/2000/svg"><path fill="none" d="M0 0h24v24H0V0z"/><path d="M12.5 8c-2.65 0-5.05.99-6.9 2.6L2 7v9h9l-3.62-3.62c1.39-1.16 3.16-1.88 5.12-1.88 3.54 0 6.55 2.31 7.6 5.5l2.37-.78C21.08 11.03 17.15 8 12.5 8z"/></symbol><symbol viewBox="0 0 512 512" id="width" xmlns="http://www.w3.org/2000/svg"><path d="M1 117h511v60H1zM0 0h512v40H0zM1 412h511v100H1zM1 254h511v80H1z"/></symbol></svg>